<svg xmlns="http://www.w3.org/2000/svg" viewBox="0 0 275.09 276.71"><defs><style>.cls-1{fill:none;stroke:#e60012;stroke-miterlimit:10;}.cls-2{fill:#040000;}.cls-3{fill:#fff;}</style></defs><g id="图层_2" data-name="图层 2"><g id="图层_1-2" data-name="图层 1"><line class="cls-1" x1="274.59" y1="138.25" x2="274.59" y2="138.02"/><path class="cls-2" d="M259.92,37,220.15,10.16,207.69,1.75l-.16.11-12.31,8.3-55.3,37.29L82,8.41,69.89.22,69.56,0,57.09,8.4.83,46.34,0,46.9v182l57.44,38.73h0L69.89,276h0l12.47-8.4L138,230.11l69.11,46.6.41-.27,12.06-8.13,40.33-27.2,2.41-1.63h0l12.25-8.26v-93l-.17-.12.17-.11V46.86Zm-190,222.25h0V184.18l55.66,37.53Zm190-38.17-52.39-35.33-1.84-1.24-12.47-8.41L83.66,102.19l-12.47-8.4-1.3-.88L13.3,54.75,69.56,16.81l.33-.22V17l57.57,38.82,12.46,8.41,67.61,45.58V18.46l.16.1,52.23,35.22Z"/><polygon class="cls-3" points="69.89 259.21 69.91 259.22 125.55 221.71 69.89 184.18 69.89 259.21"/><polygon class="cls-3" points="207.69 18.56 207.53 18.67 207.53 109.84 139.92 64.26 127.46 55.85 69.89 17.03 69.56 16.81 13.3 54.75 69.89 92.91 71.19 93.79 83.66 102.19 193.22 176.07 205.69 184.48 207.53 185.72 259.92 221.05 259.92 53.78 207.69 18.56"/></g></g></svg>