<?xml version="1.0" standalone="no"?>
<!DOCTYPE svg PUBLIC "-//W3C//DTD SVG 1.1//EN" "http://www.w3.org/Graphics/SVG/1.1/DTD/svg11.dtd">
<svg t="1724810798159" class="icon" viewBox="0 0 1024 1024" version="1.1" xmlns="http://www.w3.org/2000/svg" p-id="1321" xmlns:xlink="http://www.w3.org/1999/xlink" width="200" height="200">
	<path d="M377.6 511.85c0 73.892 60.486 134.356 134.4 134.356s134.398-60.462 134.398-134.356c0-73.89-60.484-134.358-134.398-134.358s-134.4 60.468-134.4 134.358z" p-id="1322">
	</path>
	<path d="M953.504 435.59c-0.018 0.01-0.032 0.076-0.048 0.084-3.402-19.754-8.08-39.676-13.978-57.676h-0.214c5.966 18 10.704 38 14.144 58h-0.004c-3.438-20-8.176-40-14.14-58h-310.78c38.088 34 62.716 80.35 62.716 134.104 0 33.592-8.968 62.568-24.628 89.448L462.088 956.904s-0.018 0.528-0.028 0.528l-0.02 0.568h0.03l-0.01-0.524c16.406 1.84 33.062 2.524 49.94 2.524 13.684 0 27.218-0.786 40.598-2.004a447.72 447.72 0 0 0 59.554-9.466C811.36 903.05 960 724.808 960 511.882c0-25.998-2.242-51.506-6.496-76.292z" p-id="1323">
	</path>
	<path d="M512 690.992c-67.202 0-123.202-35.82-154.57-89.57L152.012 246.094l-0.274-0.472a447.032 447.032 0 0 0-51.806 90.246C76.814 389.89 64 449.372 64 511.85c0 125.39 51.568 238.72 134.632 320.018 58.684 57.438 133.09 98.866 216.176 117.238l0.058-0.102 155.366-269.208c-17.918 6.716-38.062 11.196-58.232 11.196z" p-id="1324">
	</path>
	<path d="M182.584 209.15l154.7 266.5C352.966 395.026 424.63 332 512 332h410.344c-13.842-30-31.188-60.648-51.558-87.876 0.078 0.042 0.156 0.106 0.234 0.148C891.288 271.424 908.556 302 922.344 332h0.344c-13.768-30-31.028-60.76-51.336-87.98-0.23-0.12-0.458-0.336-0.684-0.514C788.95 134.534 658.718 64 512 64c-52.744 0-103.346 9.138-150.344 25.872-69.23 24.654-130.606 65.834-179.374 118.812l0.284 0.486 0.018-0.02z" p-id="1325">
	</path>
</svg>
